<svg width="28" height="25" viewBox="0 0 28 25" fill="none" xmlns="http://www.w3.org/2000/svg">
<path d="M25.2289 0H2.43105C1.09225 0 0 1.29462 0 2.88462V22.1154C0 23.7 1.08738 25 2.43105 25H25.2289C26.5644 25 27.66 23.7097 27.66 22.1154V2.88462C27.66 1.3 26.5726 0 25.2289 0ZM24.8932 1.92308L13.8815 14.9893L2.77459 1.92308H24.8932ZM1.6207 21.7172V3.27365L9.42596 12.4557L1.6207 21.7172ZM2.7667 23.0769L10.5769 13.8096L13.3135 17.029C13.6303 17.4017 14.1416 17.4004 14.457 17.026L17.1254 13.8598L24.8933 23.0769H2.7667ZM26.0393 21.7171L18.2714 12.5L26.0393 3.28282V21.7171Z" fill="white"/>
</svg>
