<svg width="28" height="25" viewBox="0 0 28 25" fill="none" xmlns="http://www.w3.org/2000/svg">
<path d="M5.60431 16.6183C8.34241 19.5659 11.6385 21.8867 15.4005 23.5288C16.8328 24.1401 18.7483 24.8653 20.8824 24.9896C21.0147 24.9948 21.1413 25 21.2736 25C22.7059 25 23.8563 24.5545 24.794 23.6376C24.7997 23.6324 24.8112 23.622 24.817 23.6117C25.1506 23.2491 25.5303 22.9227 25.9272 22.5756C26.1975 22.3425 26.4736 22.099 26.7382 21.8504C27.9635 20.7004 27.9635 19.2395 26.7267 18.1258L23.2696 15.0124C22.6829 14.4633 21.9811 14.1732 21.2448 14.1732C20.5085 14.1732 19.801 14.4633 19.197 15.0073L17.1377 16.8618C16.9478 16.7634 16.7523 16.6753 16.5682 16.5924C16.3381 16.4888 16.1253 16.3904 15.9354 16.2816C14.0602 15.2093 12.3575 13.8106 10.7296 12.0131C9.90703 11.0754 9.35481 10.288 8.96941 9.48508C9.51012 9.04476 10.0163 8.58371 10.5053 8.13303C10.6778 7.97244 10.8562 7.81185 11.0345 7.65126C11.6557 7.09179 11.9894 6.44426 11.9894 5.78637C11.9894 5.12847 11.6615 4.48094 11.0345 3.92147L9.3203 2.37775C9.11897 2.19644 8.92914 2.02031 8.73356 1.839C8.35391 1.48674 7.957 1.12412 7.56585 0.797762C6.97336 0.274554 6.27733 0 5.54104 0C4.8105 0 4.10872 0.274555 3.49322 0.802942L1.34186 2.74036C0.559548 3.44488 0.116622 4.29963 0.0245848 5.28906C-0.0847088 6.52714 0.168392 7.84293 0.824154 9.43328C1.83081 11.8939 3.34941 14.1784 5.60431 16.6183ZM1.42815 5.39784C1.49717 4.70887 1.79054 4.13386 2.34276 3.63655L4.48261 1.70949C4.81625 1.41939 5.18439 1.26917 5.54104 1.26917C5.89193 1.26917 6.24857 1.41939 6.57645 1.71985C6.96185 2.04103 7.32425 2.37775 7.71541 2.73518C7.91098 2.91649 8.11231 3.0978 8.31364 3.28429L10.0278 4.82801C10.3845 5.14919 10.5685 5.47555 10.5685 5.79673C10.5685 6.1179 10.3845 6.44426 10.0278 6.76544C9.84951 6.92603 9.67119 7.09179 9.49286 7.25238C8.9579 7.73933 8.45745 8.20037 7.90523 8.6407C7.89373 8.65106 7.88797 8.65624 7.87647 8.6666C7.39903 9.09656 7.47381 9.5058 7.58885 9.81662C7.59461 9.83216 7.60036 9.84252 7.60611 9.85806C8.04904 10.8164 8.66453 11.7281 9.62517 12.816C11.3509 14.7327 13.1686 16.2194 15.1704 17.3643C15.4177 17.5093 15.6823 17.6233 15.9297 17.7373C16.1598 17.8409 16.3726 17.9393 16.5624 18.0481C16.5854 18.0584 16.6027 18.0688 16.6257 18.0792C16.8155 18.1672 16.9996 18.2087 17.1837 18.2087C17.6439 18.2087 17.943 17.9445 18.0408 17.8564L20.1921 15.919C20.5258 15.6185 20.8882 15.4579 21.2448 15.4579C21.682 15.4579 22.0386 15.7014 22.263 15.919L25.7316 19.0375C26.4219 19.6591 26.4161 20.3326 25.7143 20.9905C25.4727 21.2236 25.2196 21.4463 24.9493 21.6794C24.5466 22.0317 24.1267 22.3943 23.7471 22.8036C23.0855 23.4459 22.2975 23.7464 21.2793 23.7464C21.1815 23.7464 21.078 23.7412 20.9802 23.736C19.0934 23.6272 17.339 22.9642 16.0217 22.3995C12.4438 20.8402 9.30304 18.6283 6.69725 15.8206C4.55164 13.4946 3.10782 11.3293 2.15293 9.0085C1.56045 7.58392 1.33611 6.43908 1.42815 5.39784Z" fill="white"/>
</svg>
