<svg width="28" height="25" viewBox="0 0 28 25" fill="none" xmlns="http://www.w3.org/2000/svg">
<path d="M13.83 0C6.20428 0 0 3.73843 0 8.33335C0 9.71274 0.57235 11.0804 1.66041 12.2935L13.0737 24.7314C13.2256 24.8973 13.5152 25 13.83 25C14.1448 25 14.4344 24.8973 14.5863 24.7314L26.0038 12.2894C27.0877 11.0804 27.66 9.7127 27.66 8.3333C27.66 3.73843 21.4557 0 13.83 0ZM13.83 12.5C10.0171 12.5 6.91504 10.6308 6.91504 8.33335C6.91504 6.03589 10.0171 4.1667 13.83 4.1667C17.6429 4.1667 20.745 6.03589 20.745 8.33335C20.745 10.6308 17.6429 12.5 13.83 12.5Z" fill="white"/>
</svg>
