<svg width="129" height="83" viewBox="0 0 129 83" fill="none" xmlns="http://www.w3.org/2000/svg">
<path d="M5.38766 20.272H16.6197V67H5.38766V20.272Z" fill="#2F4858"/>
<path d="M25.5048 20.272H61.8648V28.264H36.7368V39.712H59.4888V47.704H36.7368V67H25.5048V20.272ZM69.4502 20.272H80.6822V67H69.4502V20.272ZM101.555 28.264H87.1548V20.272H127.115V28.264H112.787V67H101.555V28.264Z" fill="white" fill-opacity="0.9"/>
<path d="M25.5048 20.272V19.272H24.5048V20.272H25.5048ZM61.8648 20.272H62.8648V19.272H61.8648V20.272ZM61.8648 28.264V29.264H62.8648V28.264H61.8648ZM36.7368 28.264V27.264H35.7368V28.264H36.7368ZM36.7368 39.712H35.7368V40.712H36.7368V39.712ZM59.4888 39.712H60.4888V38.712H59.4888V39.712ZM59.4888 47.704V48.704H60.4888V47.704H59.4888ZM36.7368 47.704V46.704H35.7368V47.704H36.7368ZM36.7368 67V68H37.7368V67H36.7368ZM25.5048 67H24.5048V68H25.5048V67ZM25.5048 21.272H61.8648V19.272H25.5048V21.272ZM60.8648 20.272V28.264H62.8648V20.272H60.8648ZM61.8648 27.264H36.7368V29.264H61.8648V27.264ZM35.7368 28.264V39.712H37.7368V28.264H35.7368ZM36.7368 40.712H59.4888V38.712H36.7368V40.712ZM58.4888 39.712V47.704H60.4888V39.712H58.4888ZM59.4888 46.704H36.7368V48.704H59.4888V46.704ZM35.7368 47.704V67H37.7368V47.704H35.7368ZM36.7368 66H25.5048V68H36.7368V66ZM26.5048 67V20.272H24.5048V67H26.5048ZM69.4502 20.272V19.272H68.4502V20.272H69.4502ZM80.6822 20.272H81.6822V19.272H80.6822V20.272ZM80.6822 67V68H81.6822V67H80.6822ZM69.4502 67H68.4502V68H69.4502V67ZM69.4502 21.272H80.6822V19.272H69.4502V21.272ZM79.6822 20.272V67H81.6822V20.272H79.6822ZM80.6822 66H69.4502V68H80.6822V66ZM70.4502 67V20.272H68.4502V67H70.4502ZM101.555 28.264H102.555V27.264H101.555V28.264ZM87.1548 28.264H86.1548V29.264H87.1548V28.264ZM87.1548 20.272V19.272H86.1548V20.272H87.1548ZM127.115 20.272H128.115V19.272H127.115V20.272ZM127.115 28.264V29.264H128.115V28.264H127.115ZM112.787 28.264V27.264H111.787V28.264H112.787ZM112.787 67V68H113.787V67H112.787ZM101.555 67H100.555V68H101.555V67ZM101.555 27.264H87.1548V29.264H101.555V27.264ZM88.1548 28.264V20.272H86.1548V28.264H88.1548ZM87.1548 21.272H127.115V19.272H87.1548V21.272ZM126.115 20.272V28.264H128.115V20.272H126.115ZM127.115 27.264H112.787V29.264H127.115V27.264ZM111.787 28.264V67H113.787V28.264H111.787ZM112.787 66H101.555V68H112.787V66ZM102.555 67V28.264H100.555V67H102.555Z" fill="#4C58A6"/>
</svg>
